<svg width="24" height="24" viewBox="0 0 24 24" fill="none" xmlns="http://www.w3.org/2000/svg">
<path d="M0 12V2.35294C0 1.05345 1.05345 0 2.35294 0H12H21.6471C22.9465 0 24 1.05345 24 2.35294V12V21.6471C24 22.9465 22.9465 24 21.6471 24H12H2.35294C1.05345 24 0 22.9465 0 21.6471V12ZM13.76 18.9867C14.0168 18.7299 14.021 18.6755 13.8073 18.3704C13.6851 18.1959 13.5339 18.1333 13.2346 18.1333C12.5583 18.1333 11.0347 17.8296 10.2685 17.5419C7.78339 16.609 5.74885 14.4549 4.95096 11.912C4.73111 11.2113 4.4888 11.0065 4.09318 11.1867C3.77364 11.3323 3.76319 11.69 4.05379 12.5346C5.23953 15.9811 8.38833 18.5383 12.1157 19.082C13.192 19.239 13.5272 19.2195 13.76 18.9867ZM12.2411 10.2091C12.2657 5.99449 12.2498 5.43835 12.1001 5.28871C11.8625 5.05106 11.5607 5.07915 11.3661 5.35708C11.2221 5.56254 11.2 6.19417 11.2 10.0968C11.2 12.6597 11.2433 14.7135 11.3006 14.864C11.42 15.1781 11.7044 15.2701 12 15.0904C12.2075 14.9642 12.2141 14.831 12.2411 10.2091ZM19.4155 12.2626C19.6462 11.8316 19.4534 11.6711 17.8089 10.9243C16.9304 10.5254 16.248 10.1681 16.2925 10.1304C16.337 10.0928 17.0086 9.78259 17.785 9.44122C19.3898 8.73558 19.6152 8.56033 19.4326 8.15958C19.3478 7.97351 19.2264 7.89332 19.0295 7.89332C18.7615 7.89332 15.1453 9.43774 14.64 9.76805C14.3775 9.93962 14.319 10.3611 14.5333 10.536C14.8268 10.7752 18.7393 12.4699 19.0096 12.4748C19.1954 12.478 19.3408 12.4021 19.4155 12.2626Z" fill="black"/>
</svg>
