<svg width="24" height="24" viewBox="0 0 24 24" fill="none" xmlns="http://www.w3.org/2000/svg">
<path d="M12 0C8.73822 0 8.33172 0.01575 7.05522 0.06975C5.77347 0.13275 4.90647 0.3315 4.14147 0.6285C3.35247 0.9375 2.68046 1.34775 2.01671 2.01525C1.34846 2.679 0.934465 3.351 0.629965 4.14C0.332965 4.905 0.134215 5.772 0.0712149 7.05375C0.0134648 8.331 0.00146484 8.73675 0.00146484 11.9985C0.00146484 15.2603 0.0172148 15.6667 0.0712149 16.9432C0.134215 18.2212 0.332965 19.092 0.629965 19.857C0.938965 20.646 1.34921 21.318 2.01671 21.9818C2.68046 22.65 3.35247 23.064 4.14147 23.3685C4.90647 23.6618 5.77722 23.8642 7.05522 23.9272C8.33247 23.985 8.73822 23.997 12 23.997C15.2617 23.997 15.6682 23.9812 16.9447 23.9272C18.2227 23.8642 19.0935 23.661 19.8585 23.3685C20.6475 23.0595 21.3195 22.6493 21.9832 21.9818C22.6515 21.318 23.0655 20.6497 23.37 19.857C23.6632 19.092 23.8657 18.2212 23.9287 16.9432C23.9865 15.666 23.9985 15.2603 23.9985 11.9985C23.9985 8.73675 23.9827 8.33025 23.9287 7.05375C23.8657 5.77575 23.6625 4.9005 23.37 4.14C23.061 3.351 22.6507 2.679 21.9832 2.01525C21.3195 1.347 20.6512 0.933 19.8585 0.6285C19.0935 0.3315 18.2227 0.13275 16.9447 0.06975C15.6675 0.012 15.2617 0 12 0V0ZM12 2.16C15.2032 2.16 15.5857 2.17575 16.8517 2.22975C18.0195 2.2845 18.6555 2.4795 19.0777 2.6445C19.641 2.86275 20.0347 3.12075 20.4607 3.54225C20.8785 3.96 21.1365 4.35825 21.3547 4.9215C21.5197 5.34375 21.7147 5.97975 21.7695 7.1475C21.8235 8.4135 21.8392 8.79675 21.8392 11.9992C21.8392 15.2017 21.8235 15.585 21.765 16.851C21.702 18.0188 21.507 18.6548 21.3427 19.077C21.1155 19.6403 20.862 20.034 20.4435 20.46C20.0212 20.8778 19.6192 21.1358 19.0605 21.354C18.6435 21.519 17.9985 21.714 16.8262 21.7687C15.5535 21.8227 15.1785 21.8385 11.967 21.8385C8.75547 21.8385 8.38122 21.8227 7.10697 21.7642C5.93922 21.7012 5.29497 21.5062 4.87272 21.342C4.30272 21.1147 3.91197 20.8612 3.49347 20.4427C3.07122 20.0205 2.80271 19.6185 2.59571 19.0598C2.42771 18.6428 2.23571 17.9977 2.17346 16.8255C2.13071 15.5677 2.11046 15.1778 2.11046 11.9813C2.11046 8.78625 2.13071 8.3955 2.17346 7.122C2.23571 5.94975 2.42771 5.30625 2.59571 4.88775C2.80271 4.317 3.07197 3.927 3.49347 3.50475C3.91122 3.087 4.30272 2.817 4.87272 2.6055C5.29497 2.44125 5.92347 2.24625 7.09572 2.18775C8.36847 2.142 8.74347 2.1255 11.9505 2.1255L12 2.16ZM12 5.84025C8.59422 5.84025 5.84022 8.598 5.84022 12C5.84022 15.4057 8.59797 18.1597 12 18.1597C15.4057 18.1597 18.1597 15.402 18.1597 12C18.1597 8.59425 15.402 5.84025 12 5.84025V5.84025ZM12 15.9998C9.78897 15.9998 8.00022 14.211 8.00022 12C8.00022 9.789 9.78897 8.00025 12 8.00025C14.211 8.00025 15.9997 9.789 15.9997 12C15.9997 14.211 14.211 15.9998 12 15.9998V15.9998ZM19.848 5.59425C19.848 6.3915 19.1992 7.035 18.4057 7.035C17.6085 7.035 16.965 6.39075 16.965 5.59425C16.965 4.8015 17.613 4.1565 18.4057 4.1565C19.1985 4.1565 19.848 4.8015 19.848 5.59425V5.59425Z" fill="black"/>
</svg>
