<svg width="24" height="24" viewBox="0 0 24 24" fill="none" xmlns="http://www.w3.org/2000/svg">
<path d="M9.99111 1.70552C9.88653 1.70996 9.72179 1.72024 9.62495 1.72849C9.52811 1.73674 9.37797 1.75171 9.29129 1.76161C9.2046 1.77164 9.06702 1.79017 8.98542 1.80299C8.90394 1.81568 8.7788 1.83687 8.70747 1.84995C8.63601 1.86302 8.53385 1.88396 8.48041 1.89653C8.42686 1.90909 8.29968 1.94019 8.19764 1.9657C8.09573 1.99108 7.92477 2.03931 7.81765 2.07269C7.71066 2.10619 7.55836 2.15759 7.47942 2.18704C7.40035 2.21636 7.28156 2.26217 7.21531 2.2887C7.14906 2.31522 7.03216 2.36536 6.95576 2.39988C6.87923 2.43453 6.75206 2.49519 6.67312 2.53466C6.59405 2.57414 6.46688 2.64204 6.39035 2.68544C6.31394 2.72885 6.19096 2.80182 6.11697 2.84777C6.0431 2.89359 5.92215 2.97291 5.84816 3.02406C5.77429 3.0752 5.67212 3.14843 5.6211 3.18689C5.57021 3.22522 5.47654 3.29858 5.41321 3.34985C5.34975 3.401 5.23934 3.49504 5.16763 3.55876C5.09592 3.62247 4.96837 3.74342 4.88422 3.82757C4.80008 3.91171 4.67912 4.03914 4.61541 4.11085C4.55183 4.18243 4.45753 4.29297 4.406 4.35643C4.3546 4.41989 4.26322 4.53843 4.20319 4.62004C4.14315 4.70164 4.05571 4.82666 4.00888 4.89811C3.96204 4.96944 3.8911 5.08202 3.85112 5.14827C3.81127 5.21452 3.75098 5.31884 3.71697 5.38002C3.68308 5.44119 3.62787 5.54539 3.59424 5.61177C3.5606 5.67802 3.50184 5.801 3.46351 5.88515C3.42531 5.96929 3.36617 6.10687 3.33215 6.19102C3.29814 6.27503 3.24331 6.42099 3.21019 6.51541C3.17706 6.60971 3.12998 6.75351 3.10535 6.83512C3.08073 6.9166 3.03948 7.06674 3.01359 7.16878C2.9877 7.2707 2.9542 7.41246 2.93897 7.48392C2.92374 7.55525 2.89861 7.68457 2.88325 7.77113C2.86776 7.85782 2.84479 8.00593 2.83223 8.10023C2.81966 8.19453 2.80481 8.31332 2.79936 8.36434C2.7939 8.41536 2.78298 8.53416 2.77524 8.62846C2.76737 8.72275 2.75862 8.94384 2.75557 9.11975C2.7524 9.30924 2.75468 9.54137 2.76103 9.68974C2.76699 9.82731 2.77803 10.0108 2.78552 10.0975C2.79314 10.1841 2.8057 10.3114 2.81344 10.3802C2.82131 10.449 2.83819 10.5761 2.85101 10.6628C2.86396 10.7495 2.89277 10.9142 2.91523 11.029C2.93782 11.1436 2.97476 11.3125 2.99747 11.4043C3.02019 11.496 3.05801 11.6378 3.08162 11.7194C3.1051 11.801 3.14977 11.9428 3.18074 12.0345C3.21171 12.1263 3.26108 12.2639 3.2904 12.3404C3.31972 12.4168 3.36896 12.5378 3.39967 12.6091C3.43039 12.6805 3.48433 12.7993 3.51948 12.8733C3.55477 12.9472 3.6181 13.0723 3.66036 13.1513C3.70262 13.2303 3.77294 13.3555 3.8166 13.4293C3.86026 13.5033 3.93564 13.6243 3.98413 13.6982C4.03261 13.772 4.10965 13.8847 4.15534 13.9484C4.2009 14.0121 4.26766 14.1017 4.30358 14.1477C4.33949 14.1935 4.40866 14.2791 4.45715 14.3377C4.50576 14.3963 4.60665 14.5109 4.68115 14.5925C4.75578 14.674 4.87496 14.7971 4.9459 14.8659C5.01672 14.9347 5.12473 15.0352 5.18578 15.089C5.24682 15.143 5.36143 15.2391 5.44037 15.3026C5.51944 15.3661 5.63202 15.4528 5.69065 15.4953C5.74929 15.5378 5.86808 15.6195 5.95477 15.677C6.04145 15.7344 6.19578 15.8301 6.2977 15.8895C6.39961 15.949 6.57273 16.0426 6.68238 16.0974C6.79191 16.1523 6.9338 16.2205 6.99752 16.2489C7.06123 16.2775 7.15705 16.3184 7.21061 16.3398C7.26417 16.3613 7.38715 16.4076 7.48399 16.4429C7.58083 16.4781 7.7415 16.5322 7.84088 16.5629C7.94026 16.5938 8.11121 16.6417 8.22087 16.6695C8.3304 16.6973 8.50148 16.7364 8.60086 16.7565C8.70023 16.7764 8.82956 16.8011 8.8882 16.8112C8.94683 16.8213 9.02806 16.8341 9.06893 16.8397C9.10967 16.8453 9.18886 16.8558 9.24496 16.8632C9.30106 16.8706 9.44283 16.8849 9.5601 16.8951C9.67737 16.9052 9.87752 16.9184 10.0049 16.9244C10.1444 16.9309 10.3529 16.9329 10.5286 16.9295C10.6892 16.9263 10.9019 16.9174 11.0012 16.9097C11.1007 16.9019 11.2425 16.8894 11.3164 16.8816C11.3904 16.8737 11.4967 16.8611 11.5527 16.8533C11.6088 16.8456 11.7151 16.8288 11.789 16.8161C11.863 16.8034 11.986 16.7803 12.0625 16.7648C12.1389 16.7494 12.3016 16.7115 12.424 16.6808C12.5463 16.6501 12.7549 16.5894 12.8874 16.5462C13.0199 16.5028 13.195 16.4411 13.2766 16.409C13.3582 16.3769 13.4686 16.3316 13.5222 16.3083L13.6195 16.2661L13.6241 22.2897H17.2758L17.2754 12.6091C17.36 12.408 17.4118 12.2767 17.4451 12.1875C17.4783 12.0982 17.5226 11.9711 17.5436 11.9048L17.5815 11.7842L17.5816 11.3162H21.2333V8.39683C15.5696 8.38871 12.964 8.38769 11.789 8.38922L9.65275 8.39214C9.64894 10.6134 9.65122 11.0675 9.65744 11.0706C9.6629 11.0734 9.66671 11.1247 9.66671 11.1957V11.3162H13.6241V12.3404C13.4684 12.5271 13.3652 12.6383 13.2942 12.7077C13.2234 12.7772 13.1362 12.8589 13.1006 12.8892C13.0648 12.9194 12.996 12.9735 12.9476 13.0092C12.8992 13.045 12.8178 13.1013 12.7669 13.1344C12.7159 13.1674 12.6533 13.2064 12.6278 13.2209C12.6023 13.2354 12.5399 13.2688 12.4888 13.2949C12.4378 13.3212 12.3461 13.3647 12.2849 13.3919C12.2237 13.4189 12.1153 13.4617 12.044 13.4868C11.9725 13.5121 11.8516 13.5489 11.7752 13.5688C11.6986 13.5888 11.5965 13.6132 11.5481 13.6231C11.4996 13.633 11.3829 13.652 11.2886 13.665C11.1943 13.6782 11.0399 13.6936 10.9456 13.6994C10.8431 13.7056 10.6738 13.7077 10.524 13.7042C10.3863 13.7012 10.2237 13.6942 10.1626 13.689C10.1014 13.6837 9.9887 13.6709 9.91229 13.6606C9.83576 13.6503 9.71697 13.6314 9.64818 13.6187C9.57926 13.6059 9.45425 13.5785 9.3701 13.5579C9.28596 13.5372 9.15041 13.4983 9.06893 13.4711C8.98732 13.4439 8.86434 13.399 8.79542 13.3711C8.72663 13.3433 8.61406 13.2923 8.54527 13.2579C8.47648 13.2235 8.37419 13.1683 8.31821 13.135C8.26212 13.1018 8.18495 13.0535 8.14675 13.0278C8.10842 13.002 8.05423 12.9639 8.02605 12.9434C7.998 12.9227 7.93328 12.8724 7.88238 12.8318C7.83149 12.7911 7.73833 12.7077 7.67538 12.6464C7.6123 12.5851 7.52245 12.4912 7.47549 12.4376C7.42865 12.3842 7.36304 12.3049 7.32953 12.2616C7.29615 12.2183 7.23967 12.139 7.20414 12.0855C7.1686 12.032 7.11923 11.9548 7.09435 11.9141C7.0696 11.8732 7.01122 11.7648 6.96464 11.6731C6.91807 11.5813 6.85372 11.4395 6.82161 11.3579C6.78937 11.2763 6.74546 11.1554 6.72388 11.0891C6.70231 11.0229 6.66563 10.8937 6.6424 10.8019C6.6193 10.7101 6.58961 10.5808 6.57666 10.5146C6.56359 10.4483 6.5448 10.3398 6.5349 10.2736C6.52488 10.2073 6.51028 10.0905 6.50241 10.014C6.49442 9.9376 6.48363 9.80409 6.47843 9.71753C6.47322 9.63085 6.46865 9.43692 6.46827 9.28652C6.46802 9.13612 6.47246 8.95476 6.47805 8.8833C6.48376 8.81198 6.4948 8.6994 6.50241 8.63315C6.51016 8.5669 6.52691 8.45001 6.5396 8.37361C6.55229 8.2972 6.57539 8.17625 6.591 8.1048C6.60661 8.03347 6.63593 7.91671 6.65611 7.84538C6.67642 7.77392 6.70764 7.67176 6.72566 7.6182C6.74368 7.56476 6.773 7.48341 6.79077 7.43747C6.80854 7.39165 6.84966 7.2957 6.88202 7.22437C6.91451 7.15305 6.95843 7.06129 6.97962 7.02042C7.00082 6.97968 7.0413 6.9067 7.06948 6.85822C7.09765 6.80986 7.16022 6.71188 7.20858 6.64043C7.25693 6.5691 7.33638 6.46071 7.38525 6.39954C7.43398 6.33837 7.54922 6.2131 7.64124 6.12121C7.73744 6.02501 7.85674 5.91687 7.92249 5.86636C7.98518 5.81801 8.07491 5.75214 8.12175 5.7199C8.16858 5.68766 8.25704 5.63169 8.31821 5.59539C8.37939 5.55922 8.48359 5.50274 8.54984 5.47C8.61609 5.43726 8.71204 5.39372 8.76306 5.37342C8.81395 5.35311 8.89531 5.32201 8.94379 5.30425C8.99214 5.2866 9.09647 5.25361 9.17541 5.23076C9.25448 5.20804 9.39003 5.1753 9.47671 5.15791C9.5634 5.14065 9.70301 5.11781 9.78715 5.10727C9.8713 5.09674 10.0298 5.08354 10.1393 5.07808C10.249 5.07262 10.4074 5.07072 10.4915 5.07389C10.5757 5.07707 10.6945 5.08366 10.7557 5.08874C10.8168 5.09369 10.9148 5.1041 10.9734 5.11184C11.0321 5.11946 11.1342 5.13621 11.2005 5.1489C11.2669 5.16159 11.3731 5.18494 11.4369 5.20068C11.5007 5.21655 11.5986 5.24498 11.6547 5.26389C11.7107 5.2828 11.8004 5.31592 11.854 5.33737C11.9074 5.35882 12.0055 5.40299 12.0718 5.43561C12.138 5.4681 12.2276 5.5162 12.271 5.54247C12.3143 5.56874 12.3977 5.62382 12.4563 5.66494C12.515 5.70607 12.5901 5.7628 12.6232 5.7911C12.6564 5.81928 12.7081 5.8656 12.7385 5.8939C12.7687 5.92221 12.8313 5.98503 12.8776 6.03338C12.9239 6.08187 12.9848 6.15066 13.0131 6.18632C13.0414 6.22198 13.0938 6.29293 13.1296 6.34395C13.1654 6.39484 13.2173 6.47506 13.245 6.52214L13.2951 6.60756C17.0924 6.60806 17.3221 6.60641 17.3221 6.5941C17.3221 6.58649 17.3072 6.52912 17.289 6.46668C17.2707 6.40424 17.2368 6.29268 17.2137 6.21881C17.1905 6.14482 17.1453 6.01346 17.1132 5.92677C17.0811 5.84022 17.0446 5.74427 17.0323 5.71368C17.0199 5.68309 16.9929 5.61849 16.9722 5.57001C16.9515 5.52153 16.9036 5.41733 16.8659 5.33826C16.8281 5.25932 16.7583 5.12377 16.7107 5.03709C16.6631 4.9504 16.5931 4.82945 16.5549 4.76828C16.5167 4.7071 16.4445 4.59656 16.3943 4.52269C16.3442 4.44883 16.2561 4.32724 16.1986 4.25261C16.1411 4.17799 16.0483 4.06325 15.9924 3.99776C15.9365 3.93215 15.8218 3.80815 15.7375 3.7221C15.6533 3.63592 15.5114 3.50088 15.4221 3.42194C15.3329 3.343 15.1995 3.23169 15.1257 3.17471C15.0517 3.11759 14.9495 3.04132 14.8985 3.00527C14.8476 2.96923 14.7412 2.89803 14.6622 2.84713C14.5832 2.79611 14.4519 2.71628 14.3703 2.66945C14.2886 2.62274 14.1385 2.54342 14.0366 2.49316C13.9347 2.44278 13.7782 2.37069 13.6891 2.33274C13.5999 2.29479 13.4476 2.23438 13.3507 2.19846C13.2539 2.16267 13.1079 2.11216 13.0263 2.08639C12.9448 2.06063 12.7989 2.01849 12.7019 1.99273C12.6051 1.96709 12.4508 1.92965 12.3591 1.90973C12.2674 1.8898 12.1359 1.86289 12.0671 1.84995C11.9983 1.837 11.9023 1.82025 11.854 1.81276C11.8055 1.80515 11.7013 1.79042 11.6222 1.78002C11.5433 1.76948 11.3952 1.75273 11.2933 1.7427C11.1912 1.73268 11.0349 1.72024 10.9456 1.71516C10.8564 1.71008 10.6479 1.70399 10.4823 1.70171C10.3166 1.69942 10.0956 1.70107 9.99111 1.70552Z" fill="white" stroke="black" stroke-width="0.231623"/>
</svg>
